<?xml version="1.0" encoding="UTF-8"?>
<svg class="logo" viewBox="0 0 199 80" version="1.1" xmlns="http://www.w3.org/2000/svg" xmlns:xlink="http://www.w3.org/1999/xlink">
    <g id="Page-1" stroke="none" stroke-width="1" fill="none" fill-rule="evenodd">
        <g id="Group" transform="translate(1.000000, 0.000000)">
            <g id="motif" opacity="0.495326451">
                <path id="Line" d="M39.2,0.219101124 L39.199,17.266 L43.2,17.2668539 L38.7,26.2668539 L34.2,17.2668539 L38.199,17.266 L38.2,0.219101124 L39.2,0.219101124 Z" fill="#0A0039" fill-rule="nonzero"></path>
                <line x1="0" y1="0.719101124" x2="191.894245" y2="0.719101124" id="Line-2" stroke="#0A0039" stroke-linecap="square"></line>
                <path id="Line" d="M192.394245,0.219101124 L192.394,17.266 L196.394245,17.2668539 L191.894245,26.2668539 L187.394245,17.2668539 L191.394,17.266 L191.394245,0.219101124 L192.394245,0.219101124 Z" fill="#0A0039" fill-rule="nonzero"></path>
            </g>
            <path d="M11.7936,67.4157303 L11.7936,53.3465169 C11.7936,51.8507865 12.1836,50.6744569 12.9636,49.8175281 C13.7436,48.9605993 14.82,48.5321348 16.1928,48.5321348 C17.5032,48.5321348 18.5484,48.9605993 19.3284,49.8175281 C20.1084,50.6744569 20.4984,51.8507865 20.4984,53.3465169 L20.4984,53.3465169 L20.4984,67.4157303 L29.6712,67.4157303 L29.6712,52.131236 C29.6712,48.7035206 28.7898,45.9847191 27.027,43.9748315 C25.2642,41.9649438 22.8852,40.96 19.89,40.96 C18.0804,40.96 16.4814,41.3261423 15.093,42.058427 C13.7046,42.7907116 12.6048,43.7489139 11.7936,44.9330337 L11.7936,44.9330337 L11.7936,32.8269663 L2.6208,32.8269663 L2.6208,67.4157303 L11.7936,67.4157303 Z M39.3588,38.7631461 C40.95,38.7631461 42.237,38.3191011 43.2198,37.4310112 C44.2026,36.5429213 44.694,35.4289139 44.694,34.0889888 C44.694,32.7179026 44.2026,31.5805243 43.2198,30.6768539 C42.237,29.7731835 40.95,29.3213483 39.3588,29.3213483 C37.7364,29.3213483 36.4338,29.7731835 35.451,30.6768539 C34.4682,31.5805243 33.9768,32.7179026 33.9768,34.0889888 C33.9768,35.4289139 34.4682,36.5429213 35.451,37.4310112 C36.4338,38.3191011 37.7364,38.7631461 39.3588,38.7631461 Z M43.8984,67.4157303 L43.8984,41.1937079 L34.7256,41.1937079 L34.7256,67.4157303 L43.8984,67.4157303 Z M60.3252,67.7429213 C62.5404,67.7429213 64.467,67.3923596 66.105,66.691236 C67.743,65.9901124 69.0066,65.0319101 69.8958,63.8166292 C70.785,62.6013483 71.2296,61.2302622 71.2296,59.7033708 C71.2296,57.8025468 70.7538,56.2990262 69.8022,55.192809 C68.8506,54.0865918 67.743,53.2841948 66.4794,52.785618 C65.2158,52.2870412 63.6324,51.835206 61.7292,51.4301124 C60.138,51.0873408 58.9836,50.7523596 58.266,50.4251685 C57.5484,50.0979775 57.1896,49.6227715 57.1896,48.9995506 C57.1896,48.5009738 57.3846,48.1114607 57.7746,47.8310112 C58.1646,47.5505618 58.734,47.4103371 59.4828,47.4103371 C60.45,47.4103371 61.2222,47.6362547 61.7994,48.0880899 C62.3766,48.5399251 62.7432,49.1865169 62.8992,50.0278652 L62.8992,50.0278652 L71.1828,50.0278652 C70.8708,47.2856929 69.732,45.0732584 67.7664,43.3905618 C65.8008,41.7078652 63.102,40.8665169 59.67,40.8665169 C57.3612,40.8665169 55.3878,41.2404494 53.7498,41.9883146 C52.1118,42.7361798 50.8716,43.7411236 50.0292,45.0031461 C49.1868,46.2651685 48.7656,47.675206 48.7656,49.2332584 C48.7656,51.0405993 49.2258,52.4740075 50.1462,53.5334831 C51.0666,54.5929588 52.1508,55.3564045 53.3988,55.8238202 C54.6468,56.291236 56.2068,56.7119101 58.0788,57.0858427 C59.7324,57.4597753 60.918,57.8025468 61.6356,58.1141573 C62.3532,58.4257678 62.712,58.908764 62.712,59.5631461 C62.712,60.0617228 62.4936,60.4668165 62.0568,60.778427 C61.62,61.0900375 61.0272,61.2458427 60.2784,61.2458427 C59.3112,61.2458427 58.5,61.0121348 57.8448,60.5447191 C57.1896,60.0773034 56.7996,59.4229213 56.6748,58.581573 L56.6748,58.581573 L47.7828,58.581573 C47.9076,60.3265918 48.5082,61.8924345 49.5846,63.2791011 C50.661,64.6657678 52.1274,65.7564045 53.9838,66.5510112 C55.8402,67.345618 57.954,67.7429213 60.3252,67.7429213 Z M91.2132,67.4157303 L91.2132,59.6098876 L88.5456,59.6098876 C87.7656,59.6098876 87.2118,59.4540824 86.8842,59.1424719 C86.5566,58.8308614 86.3928,58.3167041 86.3928,57.6 L86.3928,57.6 L86.3928,48.8125843 L91.1664,48.8125843 L91.1664,41.1937079 L86.3928,41.1937079 L86.3928,34.8368539 L77.1732,34.8368539 L77.1732,41.1937079 L73.944,41.1937079 L73.944,48.8125843 L77.1732,48.8125843 L77.1732,57.4597753 C77.1732,64.0970787 80.5272,67.4157303 87.2352,67.4157303 L87.2352,67.4157303 L91.2132,67.4157303 Z M107.64,67.7429213 C110.2608,67.7429213 112.6164,67.197603 114.7068,66.1069663 C116.7972,65.0163296 118.443,63.4504869 119.6442,61.4094382 C120.8454,59.3683895 121.446,56.9923596 121.446,54.2813483 C121.446,51.5703371 120.8454,49.2020974 119.6442,47.1766292 C118.443,45.151161 116.805,43.5931086 114.7302,42.5024719 C112.6554,41.4118352 110.3076,40.8665169 107.6868,40.8665169 C105.066,40.8665169 102.7182,41.4118352 100.6434,42.5024719 C98.5686,43.5931086 96.9306,45.151161 95.7294,47.1766292 C94.5282,49.2020974 93.9276,51.5703371 93.9276,54.2813483 C93.9276,57.0235206 94.5204,59.4073408 95.706,61.432809 C96.8916,63.4582772 98.5218,65.0163296 100.5966,66.1069663 C102.6714,67.197603 105.0192,67.7429213 107.64,67.7429213 Z M107.64,59.7968539 C106.3608,59.7968539 105.3156,59.3294382 104.5044,58.3946067 C103.6932,57.4597753 103.2876,56.0886891 103.2876,54.2813483 C103.2876,52.5051685 103.7088,51.1496629 104.5512,50.2148315 C105.3936,49.28 106.4388,48.8125843 107.6868,48.8125843 C108.9348,48.8125843 109.9878,49.28 110.8458,50.2148315 C111.7038,51.1496629 112.1328,52.5051685 112.1328,54.2813483 C112.1328,56.0575281 111.7038,57.420824 110.8458,58.371236 C109.9878,59.3216479 108.9192,59.7968539 107.64,59.7968539 Z M129.636,67.7896629 C131.2272,67.7896629 132.5142,67.3378277 133.497,66.4341573 C134.4798,65.5304869 134.9712,64.4086891 134.9712,63.068764 C134.9712,61.6976779 134.4798,60.5602996 133.497,59.6566292 C132.5142,58.7529588 131.2272,58.3011236 129.636,58.3011236 C128.0136,58.3011236 126.711,58.7529588 125.7282,59.6566292 C124.7454,60.5602996 124.254,61.6976779 124.254,63.068764 C124.254,64.4398502 124.7454,65.5694382 125.7282,66.4575281 C126.711,67.345618 128.0136,67.7896629 129.636,67.7896629 Z M149.3388,67.4157303 L149.3388,48.8125843 L153.4572,48.8125843 L153.4572,41.1937079 L149.3388,41.1937079 C149.4012,40.1965543 149.6664,39.4720599 150.1344,39.0202247 C150.6024,38.5683895 151.3356,38.3424719 152.334,38.3424719 C152.7708,38.3424719 153.114,38.3580524 153.3636,38.3892135 L153.3636,38.3892135 L153.3636,30.5833708 C152.958,30.5522097 152.3808,30.5366292 151.632,30.5366292 C147.9192,30.5366292 145.0722,31.4325094 143.091,33.2242697 C141.1098,35.01603 140.1192,37.5946067 140.1192,40.96 L140.1192,40.96 L140.1192,41.1937079 L137.2644,41.1937079 L137.2644,48.8125843 L140.1192,48.8125843 L140.1192,67.4157303 L149.3388,67.4157303 Z M168.3396,79.8957303 L185.0004,41.1937079 L174.9384,41.1937079 L169.6032,56.0575281 L164.0808,41.1937079 L153.8784,41.1937079 L164.6424,66.2939326 L158.3712,79.8957303 L168.3396,79.8957303 Z M192.0204,38.7631461 C193.6116,38.7631461 194.8986,38.3191011 195.8814,37.4310112 C196.8642,36.5429213 197.3556,35.4289139 197.3556,34.0889888 C197.3556,32.7179026 196.8642,31.5805243 195.8814,30.6768539 C194.8986,29.7731835 193.6116,29.3213483 192.0204,29.3213483 C190.398,29.3213483 189.0954,29.7731835 188.1126,30.6768539 C187.1298,31.5805243 186.6384,32.7179026 186.6384,34.0889888 C186.6384,35.4289139 187.1298,36.5429213 188.1126,37.4310112 C189.0954,38.3191011 190.398,38.7631461 192.0204,38.7631461 Z M196.56,67.4157303 L196.56,41.1937079 L187.3872,41.1937079 L187.3872,67.4157303 L196.56,67.4157303 Z" id="histo.fyi" fill="#0A0039" fill-rule="nonzero"></path>
        </g>
    </g>
</svg>
